{"title":"Kelly Clarkson - Stronger [What Doesn't Kill You] 1080p [Sbyky]","uid":8741567,"size":158490212,"categoryP":"video","categoryS":"music_videos","magnet":"?xt=urn:btih:8e71a7e73453a627d4fd4c5acf0f29c4627eb01b&amp;dn=Kelly+Clarkson+-+Stronger+%5BWhat+Doesn%27t+Kill+You%5D+1080p+%5BSbyky%5D&amp;tr=udp%3A%2F%2Ftracker.openbittorrent.com%3A80&amp;tr=udp%3A%2F%2Fopen.demonii.com%3A1337&amp;tr=udp%3A%2F%2Ftracker.coppersurfer.tk%3A6969&amp;tr=udp%3A%2F%2Fexodus.desync.com%3A6969","seeders":1,"leechers":1,"uploader":"Sbyky","files":-1,"time":1374804486,"description":"\n\nGeneral\nComplete name                            : Kelly Clarkson - Stronger [What Doesn't Kill You] 1080p [Sbyky].mp4\nFormat                                   : MPEG-4\nFormat profile                           : Base Media / Version 2\nCodec ID                                 : mp42\nFile size                                : 151 MiB\nDuration                                 : 3mn 40s\nOverall bit rate mode                    : Variable\nOverall bit rate                         : 5 739 Kbps\nEncoded date                             : UTC 2013-04-08 08:58:23\nTagged date                              : UTC 2013-04-08 08:58:23\n\nVideo\nID                                       : 1\nFormat                                   : AVC\nFormat/Info                              : Advanced Video Codec\nFormat profile                           : &lt;a class=&quot;__cf_email__&quot; href=&quot;/cdn-cgi/l/email-protection&quot; data-cfemail=&quot;0840616f6048443c2638&quot;&gt;[email&amp;#160;protected]&lt;/a&gt;&lt;script cf-hash='f9e31' type=&quot;text/javascript&quot;&gt;\n/* &lt;![CDATA[ */!function(){try{var t=&quot;currentScript&quot;in document?document.currentScript:function(){for(var t=document.getElementsByTagName(&quot;script&quot;),e=t.length;e--;)if(t[e].getAttribute(&quot;cf-hash&quot;))return t[e]}();if(t&amp;&amp;t.previousSibling){var e,r,n,i,c=t.previousSibling,a=c.getAttribute(&quot;data-cfemail&quot;);if(a){for(e=&quot;&quot;,r=parseInt(a.substr(0,2),16),n=2;a.length-n;n+=2)i=parseInt(a.substr(n,2),16)^r,e+=String.fromCharCode(i);e=document.createTextNode(e),c.parentNode.replaceChild(e,c)}}}catch(u){}}();/* ]]&gt; */&lt;/script&gt;\nFormat settings, CABAC                   : Yes\nFormat settings, ReFrames                : 1 frame\nCodec ID                                 : avc1\nCodec ID/Info                            : Advanced Video Coding\nDuration                                 : 3mn 40s\nBit rate                                 : 5 545 Kbps\nMaximum bit rate                         : 10.3 Mbps\nWidth                                    : 1 920 pixels\nHeight                                   : 1 080 pixels\nDisplay aspect ratio                     : 16:9\nFrame rate mode                          : Constant\nFrame rate                               : 23.976 fps\nColor space                              : YUV\nChroma subsampling                       : 4:2:0\nBit depth                                : 8 bits\nScan type                                : Progressive\nBits/(Pixel*Frame)                       : 0.112\nStream size                              : 146 MiB (97%)\nTagged date                              : UTC 2013-04-08 08:58:33\n\nAudio\nID                                       : 2\nFormat                                   : AAC\nFormat/Info                              : Advanced Audio Codec\nFormat profile                           : LC\nCodec ID                                 : 40\nDuration                                 : 3mn 40s\nBit rate mode                            : Variable\nBit rate                                 : 192 Kbps\nMaximum bit rate                         : 204 Kbps\nChannel(s)                               : 2 channels\nChannel positions                        : Front: L R\nSampling rate                            : 44.1 KHz\nCompression mode                         : Lossy\nStream size                              : 5.06 MiB (3%)\nTitle                                    : IsoMedia File Produced by Google, 5-11-2011\nEncoded date                             : UTC 2013-04-08 08:58:31\nTagged date                              : UTC 2013-04-08 08:58:33\n\nShared By Sbyky\n[IMG]http://www.shotpix.com/photos/20130722137449689157289.gif[/IMG]\n[IMG]http://www.shotpix.com/photos/20130722137449694197310.gif[/IMG]","torrent":{"xt":"urn:btih:8e71a7e73453a627d4fd4c5acf0f29c4627eb01b","amp;dn":"Kelly+Clarkson+-+Stronger+%5BWhat+Doesn%27t+Kill+You%5D+1080p+%5BSbyky%5D","amp;tr":["udp%3A%2F%2Ftracker.openbittorrent.com%3A80","udp%3A%2F%2Fopen.demonii.com%3A1337","udp%3A%2F%2Ftracker.coppersurfer.tk%3A6969","udp%3A%2F%2Fexodus.desync.com%3A6969"],"infoHash":"8e71a7e73453a627d4fd4c5acf0f29c4627eb01b","infoHashBuffer":{"type":"Buffer","data":[142,113,167,231,52,83,166,39,212,253,76,90,207,15,41,196,98,126,176,27]},"announce":[],"urlList":[]}}